<?xml version="1.0" encoding="UTF-8" standalone="no"?>
<!-- Created with Inkscape (http://www.inkscape.org/) -->

<svg
   xmlns:dc="http://purl.org/dc/elements/1.1/"
   xmlns:cc="http://creativecommons.org/ns#"
   xmlns:rdf="http://www.w3.org/1999/02/22-rdf-syntax-ns#"
   xmlns:svg="http://www.w3.org/2000/svg"
   xmlns="http://www.w3.org/2000/svg"
   xmlns:sodipodi="http://sodipodi.sourceforge.net/DTD/sodipodi-0.dtd"
   xmlns:inkscape="http://www.inkscape.org/namespaces/inkscape"
   width="210mm"
   height="297mm"
   viewBox="0 0 210 297"
   version="1.1"
   id="svg8"
   inkscape:version="0.92.2 (5c3e80d, 2017-08-06)"
   sodipodi:docname="objects.svg">
  <defs
     id="defs2" />
  <sodipodi:namedview
     id="base"
     pagecolor="#ffffff"
     bordercolor="#666666"
     borderopacity="1.0"
     inkscape:pageopacity="0.0"
     inkscape:pageshadow="2"
     inkscape:zoom="0.98994949"
     inkscape:cx="531.07121"
     inkscape:cy="126.75738"
     inkscape:document-units="mm"
     inkscape:current-layer="layer1"
     showgrid="true"
     inkscape:window-width="2070"
     inkscape:window-height="1329"
     inkscape:window-x="90"
     inkscape:window-y="55"
     inkscape:window-maximized="1"
     inkscape:snap-global="true"
     inkscape:snap-object-midpoints="false"
     inkscape:snap-nodes="true">
    <inkscape:grid
       type="xygrid"
       id="grid822"
       spacingx="10.583333"
       spacingy="10.583333" />
  </sodipodi:namedview>
  <metadata
     id="metadata5">
    <rdf:RDF>
      <cc:Work
         rdf:about="">
        <dc:format>image/svg+xml</dc:format>
        <dc:type
           rdf:resource="http://purl.org/dc/dcmitype/StillImage" />
        <dc:title />
      </cc:Work>
    </rdf:RDF>
  </metadata>
  <g
     inkscape:label="Layer 1"
     inkscape:groupmode="layer"
     id="layer1">
    <path
       style="fill:#ffffff;stroke:#000000;stroke-width:2;stroke-linecap:butt;stroke-linejoin:miter;stroke-miterlimit:4;stroke-dasharray:none;stroke-opacity:1"
       d="M 10.583333,275.83334 21.166666,265.25 31.749999,275.83334 21.166666,286.41667 Z"
       id="path824"
       inkscape:connector-curvature="0"
       inkscape:export-xdpi="150"
       inkscape:export-ydpi="150" />
    <g
       id="g863"
       inkscape:export-xdpi="96"
       inkscape:export-ydpi="96">
      <path
         sodipodi:nodetypes="ccccc"
         style="fill:#ff0000;stroke:#800000;stroke-width:1.60000002;stroke-linecap:butt;stroke-linejoin:miter;stroke-miterlimit:4;stroke-dasharray:none;stroke-opacity:1"
         d="m 55.02473,275.19319 c -0.755952,-8.46667 8.466666,-9.56279 8.466666,-3.06161 0.0378,-6.50118 9.37381,-5.44286 8.466667,3.06161 0.0378,4.91369 -8.466667,8.46666 -8.466667,8.46666 0,0 -8.391071,-4.04434 -8.466666,-8.46666 z"
         id="path814"
         inkscape:connector-curvature="0"
         inkscape:export-xdpi="150"
         inkscape:export-ydpi="150" />
      <path
         inkscape:export-ydpi="150"
         inkscape:export-xdpi="150"
         inkscape:connector-curvature="0"
         id="path819"
         d="m 76.191396,275.19319 c -0.755952,-8.46667 8.466666,-9.56279 8.466666,-3.06161 0.0378,-6.50118 9.37381,-5.44286 8.466667,3.06161 0.0378,4.91369 -8.466667,8.46666 -8.466667,8.46666 0,0 -8.391071,-4.04434 -8.466666,-8.46666 z"
         style="fill:#ff0000;stroke:#800000;stroke-width:1.60000002;stroke-linecap:butt;stroke-linejoin:miter;stroke-miterlimit:4;stroke-dasharray:none;stroke-opacity:1"
         sodipodi:nodetypes="ccccc" />
      <path
         sodipodi:nodetypes="ccccc"
         style="fill:#ff0000;stroke:#800000;stroke-width:1.60000002;stroke-linecap:butt;stroke-linejoin:miter;stroke-miterlimit:4;stroke-dasharray:none;stroke-opacity:1"
         d="m 97.358062,275.19319 c -0.755952,-8.46667 8.466668,-9.56279 8.466668,-3.06161 0.0378,-6.50118 9.37381,-5.44286 8.46666,3.06161 0.0378,4.91369 -8.46666,8.46666 -8.46666,8.46666 0,0 -8.391073,-4.04434 -8.466668,-8.46666 z"
         id="path821"
         inkscape:connector-curvature="0"
         inkscape:export-xdpi="150"
         inkscape:export-ydpi="150" />
      <path
         inkscape:export-ydpi="150"
         inkscape:export-xdpi="150"
         inkscape:connector-curvature="0"
         id="path823"
         d="m 118.52473,275.19319 c -0.75595,-8.46667 8.46667,-9.56279 8.46667,-3.06161 0.0378,-6.50118 9.37381,-5.44286 8.46666,3.06161 0.0378,4.91369 -8.46666,8.46666 -8.46666,8.46666 0,0 -8.39108,-4.04434 -8.46667,-8.46666 z"
         style="fill:#ff0000;stroke:#800000;stroke-width:1.60000002;stroke-linecap:butt;stroke-linejoin:miter;stroke-miterlimit:4;stroke-dasharray:none;stroke-opacity:1"
         sodipodi:nodetypes="ccccc" />
      <path
         sodipodi:nodetypes="ccccc"
         style="fill:#ff0000;stroke:#800000;stroke-width:1.60000002;stroke-linecap:butt;stroke-linejoin:miter;stroke-miterlimit:4;stroke-dasharray:none;stroke-opacity:1"
         d="m 139.69139,275.19319 c -0.75595,-8.46667 8.46667,-9.56279 8.46667,-3.06161 0.0378,-6.50118 9.37381,-5.44286 8.46666,3.06161 0.0378,4.91369 -8.46666,8.46666 -8.46666,8.46666 0,0 -8.39108,-4.04434 -8.46667,-8.46666 z"
         id="path825"
         inkscape:connector-curvature="0"
         inkscape:export-xdpi="150"
         inkscape:export-ydpi="150" />
      <path
         inkscape:export-ydpi="150"
         inkscape:export-xdpi="150"
         inkscape:connector-curvature="0"
         id="path827"
         d="m 160.85806,275.19319 c -0.75595,-8.46667 8.46667,-9.56279 8.46667,-3.06161 0.0378,-6.50118 9.37381,-5.44286 8.46666,3.06161 0.0378,4.91369 -8.46666,8.46666 -8.46666,8.46666 0,0 -8.39108,-4.04434 -8.46667,-8.46666 z"
         style="fill:#ff0000;stroke:#800000;stroke-width:1.60000002;stroke-linecap:butt;stroke-linejoin:miter;stroke-miterlimit:4;stroke-dasharray:none;stroke-opacity:1"
         sodipodi:nodetypes="ccccc" />
      <path
         sodipodi:nodetypes="ccccc"
         style="fill:#ff0000;stroke:#800000;stroke-width:1.60000002;stroke-linecap:butt;stroke-linejoin:miter;stroke-miterlimit:4;stroke-dasharray:none;stroke-opacity:1"
         d="m 182.02473,275.19319 c -0.75595,-8.46667 8.46667,-9.56279 8.46667,-3.06161 0.0378,-6.50118 9.37381,-5.44286 8.46666,3.06161 0.0378,4.91369 -8.46666,8.46666 -8.46666,8.46666 0,0 -8.39108,-4.04434 -8.46667,-8.46666 z"
         id="path829"
         inkscape:connector-curvature="0"
         inkscape:export-xdpi="150"
         inkscape:export-ydpi="150" />
      <path
         inkscape:export-ydpi="150"
         inkscape:export-xdpi="150"
         inkscape:connector-curvature="0"
         id="path831"
         d="m 203.19139,275.19319 c -0.75595,-8.46667 8.46667,-9.56279 8.46667,-3.06161 0.0378,-6.50118 9.37381,-5.44286 8.46666,3.06161 0.0378,4.91369 -8.46666,8.46666 -8.46666,8.46666 0,0 -8.39108,-4.04434 -8.46667,-8.46666 z"
         style="fill:#ff0000;stroke:#800000;stroke-width:1.60000002;stroke-linecap:butt;stroke-linejoin:miter;stroke-miterlimit:4;stroke-dasharray:none;stroke-opacity:1"
         sodipodi:nodetypes="ccccc" />
      <path
         sodipodi:nodetypes="ccccc"
         style="fill:#ff0000;stroke:#800000;stroke-width:1.60000002;stroke-linecap:butt;stroke-linejoin:miter;stroke-miterlimit:4;stroke-dasharray:none;stroke-opacity:1"
         d="m 224.35806,275.19319 c -0.75595,-8.46667 8.46667,-9.56279 8.46667,-3.06161 0.0378,-6.50118 9.37381,-5.44286 8.46666,3.06161 0.0378,4.91369 -8.46666,8.46666 -8.46666,8.46666 0,0 -8.39108,-4.04434 -8.46667,-8.46666 z"
         id="path833"
         inkscape:connector-curvature="0"
         inkscape:export-xdpi="150"
         inkscape:export-ydpi="150" />
      <rect
         y="265.25"
         x="52.916664"
         height="21.166666"
         width="190.5"
         id="rect851"
         style="opacity:0.5;fill:none;fill-opacity:1;stroke:none;stroke-width:2;stroke-linecap:round;stroke-linejoin:round;stroke-miterlimit:4;stroke-dasharray:none;stroke-dashoffset:0;stroke-opacity:1" />
    </g>
    <g
       id="g892"
       inkscape:export-xdpi="96"
       inkscape:export-ydpi="96">
      <path
         inkscape:export-ydpi="150"
         inkscape:export-xdpi="150"
         inkscape:connector-curvature="0"
         id="path816"
         d="m 55.02473,254.02652 c -0.755952,-8.46666 8.466666,-9.56279 8.466666,-3.0616 0.0378,-6.50119 9.373811,-5.44286 8.466667,3.0616 0.03776,4.91369 -8.466667,8.46666 -8.466667,8.46666 0,0 -8.391071,-4.04434 -8.466666,-8.46666 z"
         style="opacity:0.5;fill:#333333;stroke:#666666;stroke-width:1.60000002;stroke-linecap:butt;stroke-linejoin:miter;stroke-miterlimit:4;stroke-dasharray:none;stroke-opacity:1"
         sodipodi:nodetypes="ccccc" />
      <path
         sodipodi:nodetypes="ccccc"
         style="opacity:0.5;fill:#333333;stroke:#666666;stroke-width:1.60000002;stroke-linecap:butt;stroke-linejoin:miter;stroke-miterlimit:4;stroke-dasharray:none;stroke-opacity:1"
         d="m 76.191396,254.02652 c -0.755952,-8.46666 8.466666,-9.56279 8.466666,-3.0616 0.0378,-6.50119 9.373811,-5.44286 8.466667,3.0616 0.03776,4.91369 -8.466667,8.46666 -8.466667,8.46666 0,0 -8.391071,-4.04434 -8.466666,-8.46666 z"
         id="path835"
         inkscape:connector-curvature="0"
         inkscape:export-xdpi="150"
         inkscape:export-ydpi="150" />
      <path
         inkscape:export-ydpi="150"
         inkscape:export-xdpi="150"
         inkscape:connector-curvature="0"
         id="path837"
         d="m 97.358062,254.02652 c -0.755952,-8.46666 8.466668,-9.56279 8.466668,-3.0616 0.0378,-6.50119 9.37381,-5.44286 8.46666,3.0616 0.0378,4.91369 -8.46666,8.46666 -8.46666,8.46666 0,0 -8.391073,-4.04434 -8.466668,-8.46666 z"
         style="opacity:0.5;fill:#333333;stroke:#666666;stroke-width:1.60000002;stroke-linecap:butt;stroke-linejoin:miter;stroke-miterlimit:4;stroke-dasharray:none;stroke-opacity:1"
         sodipodi:nodetypes="ccccc" />
      <path
         sodipodi:nodetypes="ccccc"
         style="opacity:0.5;fill:#333333;stroke:#666666;stroke-width:1.60000002;stroke-linecap:butt;stroke-linejoin:miter;stroke-miterlimit:4;stroke-dasharray:none;stroke-opacity:1"
         d="m 118.52473,254.02652 c -0.75595,-8.46666 8.46666,-9.56279 8.46666,-3.0616 0.0378,-6.50119 9.37381,-5.44286 8.46667,3.0616 0.0378,4.91369 -8.46667,8.46666 -8.46667,8.46666 0,0 -8.39107,-4.04434 -8.46666,-8.46666 z"
         id="path839"
         inkscape:connector-curvature="0"
         inkscape:export-xdpi="150"
         inkscape:export-ydpi="150" />
      <path
         inkscape:export-ydpi="150"
         inkscape:export-xdpi="150"
         inkscape:connector-curvature="0"
         id="path841"
         d="m 139.69139,254.02652 c -0.75595,-8.46666 8.46667,-9.56279 8.46667,-3.0616 0.0378,-6.50119 9.37381,-5.44286 8.46667,3.0616 0.0378,4.91369 -8.46667,8.46666 -8.46667,8.46666 0,0 -8.39107,-4.04434 -8.46667,-8.46666 z"
         style="opacity:0.5;fill:#333333;stroke:#666666;stroke-width:1.60000002;stroke-linecap:butt;stroke-linejoin:miter;stroke-miterlimit:4;stroke-dasharray:none;stroke-opacity:1"
         sodipodi:nodetypes="ccccc" />
      <path
         sodipodi:nodetypes="ccccc"
         style="opacity:0.5;fill:#333333;stroke:#666666;stroke-width:1.60000002;stroke-linecap:butt;stroke-linejoin:miter;stroke-miterlimit:4;stroke-dasharray:none;stroke-opacity:1"
         d="m 160.85806,254.02652 c -0.75595,-8.46666 8.46667,-9.56279 8.46667,-3.0616 0.0378,-6.50119 9.37381,-5.44286 8.46666,3.0616 0.0378,4.91369 -8.46666,8.46666 -8.46666,8.46666 0,0 -8.39108,-4.04434 -8.46667,-8.46666 z"
         id="path843"
         inkscape:connector-curvature="0"
         inkscape:export-xdpi="150"
         inkscape:export-ydpi="150" />
      <path
         inkscape:export-ydpi="150"
         inkscape:export-xdpi="150"
         inkscape:connector-curvature="0"
         id="path845"
         d="m 182.02473,254.02652 c -0.75595,-8.46666 8.46666,-9.56279 8.46666,-3.0616 0.0378,-6.50119 9.37381,-5.44286 8.46667,3.0616 0.0378,4.91369 -8.46667,8.46666 -8.46667,8.46666 0,0 -8.39107,-4.04434 -8.46666,-8.46666 z"
         style="opacity:0.5;fill:#333333;stroke:#666666;stroke-width:1.60000002;stroke-linecap:butt;stroke-linejoin:miter;stroke-miterlimit:4;stroke-dasharray:none;stroke-opacity:1"
         sodipodi:nodetypes="ccccc" />
      <path
         sodipodi:nodetypes="ccccc"
         style="opacity:0.5;fill:#333333;stroke:#666666;stroke-width:1.60000002;stroke-linecap:butt;stroke-linejoin:miter;stroke-miterlimit:4;stroke-dasharray:none;stroke-opacity:1"
         d="m 203.19139,254.02652 c -0.75595,-8.46666 8.46667,-9.56279 8.46667,-3.0616 0.0378,-6.50119 9.37381,-5.44286 8.46667,3.0616 0.0378,4.91369 -8.46667,8.46666 -8.46667,8.46666 0,0 -8.39107,-4.04434 -8.46667,-8.46666 z"
         id="path847"
         inkscape:connector-curvature="0"
         inkscape:export-xdpi="150"
         inkscape:export-ydpi="150" />
      <path
         inkscape:export-ydpi="150"
         inkscape:export-xdpi="150"
         inkscape:connector-curvature="0"
         id="path849"
         d="m 224.35806,254.02652 c -0.75595,-8.46666 8.46667,-9.56279 8.46667,-3.0616 0.0378,-6.50119 9.37381,-5.44286 8.46666,3.0616 0.0378,4.91369 -8.46666,8.46666 -8.46666,8.46666 0,0 -8.39108,-4.04434 -8.46667,-8.46666 z"
         style="opacity:0.5;fill:#333333;stroke:#666666;stroke-width:1.60000002;stroke-linecap:butt;stroke-linejoin:miter;stroke-miterlimit:4;stroke-dasharray:none;stroke-opacity:1"
         sodipodi:nodetypes="ccccc" />
      <rect
         y="244.08334"
         x="52.916664"
         height="21.166666"
         width="190.5"
         id="rect880"
         style="opacity:0.5;fill:none;fill-opacity:1;stroke:none;stroke-width:2;stroke-linecap:round;stroke-linejoin:round;stroke-miterlimit:4;stroke-dasharray:none;stroke-dashoffset:0;stroke-opacity:1" />
    </g>
  </g>
</svg>
